<svg width="37" height="36" viewBox="0 0 37 36" fill="none" xmlns="http://www.w3.org/2000/svg">
<g clip-path="url(#clip0_2_98)">
<path d="M3.08333 16.5H33.9167V30C33.9167 30.3978 33.7542 30.7794 33.4651 31.0607C33.176 31.342 32.7839 31.5 32.375 31.5H4.62499C4.21612 31.5 3.82399 31.342 3.53487 31.0607C3.24575 30.7794 3.08333 30.3978 3.08333 30V16.5ZM26.2083 4.5H32.375C32.7839 4.5 33.176 4.65804 33.4651 4.93934C33.7542 5.22064 33.9167 5.60218 33.9167 6V13.5H3.08333V6C3.08333 5.60218 3.24575 5.22064 3.53487 4.93934C3.82399 4.65804 4.21612 4.5 4.62499 4.5H10.7917V1.5H13.875V4.5H23.125V1.5H26.2083V4.5Z" fill="#99B6E0" fill-opacity="0.5"/>
</g>
<defs>
<clipPath id="clip0_2_98">
<rect width="37" height="36" fill="white"/>
</clipPath>
</defs>
</svg>
