<svg width="38" height="35" viewBox="0 0 38 35" fill="none" xmlns="http://www.w3.org/2000/svg">
<g clip-path="url(#clip0_2_33)">
<path d="M31.4189 8.34521C31.4189 10.2993 31.0446 11.763 30.2959 12.7363C29.5472 13.7096 28.383 14.1963 26.8032 14.1963C25.9946 14.1963 25.2759 14.0653 24.647 13.8032C24.0256 13.5487 23.5015 13.1631 23.0747 12.6465C22.6479 12.1299 22.326 11.4823 22.1089 10.7036C21.8918 9.93245 21.7832 9.03027 21.7832 7.99707L21.7832 5.47021L15 5.47021L15 4.31348L31.4189 4.31348L31.4189 8.34521ZM30.397 8.22168L30.397 5.47021L22.8052 5.47021L22.8052 7.88476C22.8052 8.94792 22.925 9.86133 23.1646 10.625C23.4116 11.3887 23.8234 11.9764 24.3999 12.3882C24.9764 12.8 25.7625 13.0059 26.7583 13.0059C28.0236 13.0059 28.9445 12.6165 29.521 11.8379C30.105 11.0592 30.397 9.85384 30.397 8.22168Z" fill="#99B6E0"/>
<path d="M17.7734 12.1875L14.4375 18.4219L13.5547 18.4219L17.3594 11.4141L17.3594 7L18.1641 7L18.1641 11.3516L22 18.4219L21.1094 18.4219L17.7734 12.1875Z" fill="white"/>
<path d="M17.8203 30.2969C16.5443 30.2969 15.474 30.0703 14.6094 29.6172C13.7448 29.1693 13.0937 28.5026 12.6562 27.6172C12.2187 26.737 12 25.6458 12 24.3437L12 21.6094L23.4219 21.6094L23.4219 24.7031C23.4219 25.9219 23.2083 26.9453 22.7812 27.7734C22.3542 28.6016 21.724 29.2292 20.8906 29.6562C20.0625 30.0833 19.0391 30.2969 17.8203 30.2969ZM17.7891 29.4531C18.8776 29.4531 19.7865 29.276 20.5156 28.9219C21.2448 28.5677 21.7917 28.026 22.1562 27.2969C22.526 26.5677 22.7109 25.6432 22.7109 24.5234L22.7109 22.4141L12.7109 22.4141L12.7109 24.3047C12.7109 26.0286 13.1328 27.3177 13.9766 28.1719C14.8255 29.026 16.0964 29.4531 17.7891 29.4531Z" fill="white"/>
</g>
<defs>
<clipPath id="clip0_2_33">
<rect width="38" height="35" fill="white"/>
</clipPath>
</defs>
</svg>
