<svg width="120" height="119" viewBox="0 0 120 119" fill="none" xmlns="http://www.w3.org/2000/svg">
<circle cx="59.5" cy="59.5" r="59.5" fill="#202225"/>
<g clip-path="url(#clip0_2_63)">
<mask id="mask0_2_63" style="mask-type:luminance" maskUnits="userSpaceOnUse" x="5" y="14" width="115" height="106">
<path d="M120 14H5V120H120V14Z" fill="white"/>
</mask>
<g mask="url(#mask0_2_63)">
<path d="M100.084 39.2741C100.084 45.1922 98.9508 49.6251 96.685 52.5728C94.4192 55.5205 90.8959 56.9945 86.115 56.9945C83.6679 56.9945 81.4929 56.5978 79.5896 55.804C77.7091 55.0332 76.123 53.8654 74.8313 52.3008C73.5397 50.7363 72.5655 48.775 71.9085 46.4166C71.2515 44.0811 70.9228 41.3488 70.9228 38.2197V30.5669H50.3947V27.0637H100.084V39.2741ZM96.9909 38.9V30.5669H74.0157V37.8796C74.0157 41.0994 74.3783 43.8658 75.1034 46.1786C75.8509 48.4915 77.0971 50.2714 78.8418 51.5186C80.5865 52.7657 82.9655 53.3893 85.9791 53.3893C89.8083 53.3893 92.5952 52.21 94.3399 49.8519C96.1072 47.4936 96.9909 43.8431 96.9909 38.9Z" fill="#99B6E0"/>
<path d="M58.7879 50.9107L48.6924 69.792H46.0208L57.535 48.5684V35.2H59.9703V48.3791L71.579 69.792H68.8837L58.7879 50.9107Z" fill="white"/>
<path d="M58.9299 105.756C55.0683 105.756 51.8292 105.07 49.2127 103.698C46.5961 102.341 44.6257 100.322 43.3017 97.6407C41.9777 94.9749 41.3158 91.6701 41.3158 87.7266V79.4456H75.8821V88.8151C75.8821 92.5063 75.2357 95.6058 73.9431 98.1137C72.6509 100.622 70.7437 102.523 68.2216 103.816C65.7155 105.109 62.6183 105.756 58.9299 105.756ZM58.8354 103.201C62.1296 103.201 64.8802 102.664 67.0867 101.592C69.2935 100.519 70.9486 98.8787 72.0517 96.6706C73.1708 94.4622 73.7304 91.6623 73.7304 88.2709V81.8827H43.4672V87.6085C43.4672 92.8295 44.744 96.7336 47.2976 99.3206C49.8667 101.907 53.7128 103.201 58.8354 103.201Z" fill="white"/>
</g>
</g>
<defs>
<clipPath id="clip0_2_63">
<rect width="115" height="106" fill="white" transform="translate(5 10)"/>
</clipPath>
</defs>
</svg>
